<?xml version="1.0" encoding="UTF-8"?>
<svg version="1.1" xmlns="http://www.w3.org/2000/svg" width="128" height="128">
<path d="M0 0 C3.4375 0.375 3.4375 0.375 6.4375 2.375 C7.0975 1.715 7.7575 1.055 8.4375 0.375 C11.47260589 -0.12029242 14.4006078 -0.10333833 17.4375 0.375 C19.5 2.375 19.5 2.375 20.4375 4.375 C23.9025 3.88 23.9025 3.88 27.4375 3.375 C29.89585805 5.83335805 30.430893 7.03804322 30.5 10.5625 C29.06094073 15.72618325 26.26726924 20.54523076 22.4375 24.375 C22.36436433 26.90549402 22.34502473 29.40804837 22.375 31.9375 C22.37951172 32.64841797 22.38402344 33.35933594 22.38867188 34.09179688 C22.40049136 35.85290013 22.41842737 37.61396036 22.4375 39.375 C23.05625 39.66375 23.675 39.9525 24.3125 40.25 C26.4375 41.375 26.4375 41.375 28.4375 43.375 C28.78176995 46.37506668 29.00608529 48.47577796 28.4375 51.375 C26.81410195 53.08384005 25.14430947 54.74946717 23.4375 56.375 C22.4417519 59.0420037 21.96238782 61.55969259 21.4375 64.375 C22.984375 63.88 22.984375 63.88 24.5625 63.375 C29.34616876 62.0440599 32.79493262 61.48230034 37.3125 63.9375 C39.4375 66.375 39.4375 66.375 39.75 70.125 C39.646875 71.1975 39.54375 72.27 39.4375 73.375 C40.365625 73.4575 41.29375 73.54 42.25 73.625 C45.4375 74.375 45.4375 74.375 47.3125 75.875 C49.47122702 80.67217115 49.13593175 85.51251534 47.3125 90.375 C44.84833755 93.00343994 42.92899583 92.92082168 39.4375 93.375 C39.4689209 94.38868652 39.4689209 94.38868652 39.50097656 95.42285156 C39.58421643 98.49008254 39.63618466 101.55707582 39.6875 104.625 C39.72101563 105.68847656 39.75453125 106.75195312 39.7890625 107.84765625 C39.80839844 109.38486328 39.80839844 109.38486328 39.828125 110.953125 C39.8595459 112.36706543 39.8595459 112.36706543 39.89160156 113.80957031 C39.29916823 117.15650011 38.06427484 118.28583468 35.4375 120.375 C32.21484375 121.5 32.21484375 121.5 28.375 122.375 C27.67600586 122.53452148 26.97701172 122.69404297 26.25683594 122.85839844 C24.75774218 123.19762874 23.25718675 123.53045241 21.75537109 123.85742188 C19.44729871 124.37281196 17.15673189 124.93896364 14.86328125 125.515625 C-3.00122382 129.86983949 -18.57018557 128.9740739 -36.4375 125.0625 C-37.14353363 124.90824554 -37.84956726 124.75399109 -38.57699585 124.59506226 C-51.86944347 121.64288415 -51.86944347 121.64288415 -57.5625 118.375 C-58.84111615 115.81776771 -58.67586609 114.00762898 -58.66015625 111.1484375 C-58.65693359 110.1171875 -58.65371094 109.0859375 -58.65039062 108.0234375 C-58.64201172 106.94320312 -58.63363281 105.86296875 -58.625 104.75 C-58.62048828 103.66203125 -58.61597656 102.5740625 -58.61132812 101.453125 C-58.59951776 98.76036211 -58.58304778 96.06770812 -58.5625 93.375 C-59.98949219 93.189375 -59.98949219 93.189375 -61.4453125 93 C-64.5625 92.375 -64.5625 92.375 -66.4375 90.375 C-67.97308866 86.28009691 -68.40515826 82.68972236 -67.5625 78.375 C-65.3125 75.3125 -65.3125 75.3125 -62.5625 73.375 C-61.2425 73.375 -59.9225 73.375 -58.5625 73.375 C-58.7171875 71.76625 -58.7171875 71.76625 -58.875 70.125 C-58.5625 66.375 -58.5625 66.375 -56.75 63.875 C-51.96357876 61.62256648 -47.67581581 62.55113826 -42.5625 63.375 C-42.87828394 58.00407899 -42.87828394 58.00407899 -46.125 53.875 C-48.5625 51.375 -48.5625 51.375 -48.9375 47.8125 C-48.5625 44.375 -48.5625 44.375 -47.98046875 42.515625 C-47.42832909 39.68784433 -47.93622143 37.50639286 -48.5 34.6875 C-49.44341784 29.44415053 -49.90580756 24.6962672 -49.5625 19.375 C-48.9025 18.715 -48.2425 18.055 -47.5625 17.375 C-47.43875 16.240625 -47.315 15.10625 -47.1875 13.9375 C-46.5625 10.375 -46.5625 10.375 -44.9375 8.5 C-41.08513783 6.67519687 -37.33342201 6.0571422 -33.125 6.8125 C-32.609375 6.998125 -32.09375 7.18375 -31.5625 7.375 C-31.2325 6.385 -30.9025 5.395 -30.5625 4.375 C-26.03172875 1.39132137 -21.87692983 0.62810716 -16.5625 1.375 C-13.49126831 2.20609536 -10.52690214 3.22217695 -7.5625 4.375 C-7.046875 3.715 -6.53125 3.055 -6 2.375 C-3.5625 0.375 -3.5625 0.375 0 0 Z " fill="#0B0704" transform="translate(73.5625,-0.375)"/>
<path d="M0 0 C2 2 2 2 2.3125 4.875 C2 8 2 8 0.50390625 9.87890625 C-1.3290219 12.46404906 -1.4033933 13.92504028 -1.375 17.0625 C-1.38273437 17.91972656 -1.39046875 18.77695313 -1.3984375 19.66015625 C-1.22754315 22.06502392 -1.22754315 22.06502392 0.48828125 23.4296875 C2.74720395 25.77616534 2.44237662 27.87341805 2.5625 31.0625 C2.52049942 35.55511895 2.52049942 35.55511895 5 39 C5 39.99 5 40.98 5 42 C4.01 42.495 4.01 42.495 3 43 C2.26924352 45.3140622 1.59861742 47.64828869 1 50 C-3.14190643 51.00706676 -7.28617398 52.00357603 -11.43286133 52.99072266 C-12.84076867 53.32740668 -14.24801264 53.66687821 -15.65454102 54.00927734 C-17.68594584 54.50326661 -19.7195901 54.9869091 -21.75390625 55.46875 C-22.97408447 55.76201172 -24.1942627 56.05527344 -25.45141602 56.35742188 C-29 57 -29 57 -36 57 C-36 40.5 -36 24 -36 7 C-21.625 4.0625 -21.625 4.0625 -17.09228516 3.14086914 C-15.91972168 2.89973389 -14.7471582 2.65859863 -13.5390625 2.41015625 C-12.33459473 2.16402588 -11.13012695 1.91789551 -9.88916016 1.66430664 C-1.99886381 -0.14991479 -1.99886381 -0.14991479 0 0 Z " fill="#D74952" transform="translate(107,66)"/>
<path d="M0 0 C4.7419117 0.42698645 9.37020027 1.43733072 14.02734375 2.41015625 C15.18741943 2.6512915 16.34749512 2.89242676 17.54272461 3.14086914 C18.99300049 3.44500732 20.44327637 3.74914551 21.9375 4.0625 C28.8984375 5.5165625 28.8984375 5.5165625 36 7 C36 23.83 36 40.66 36 58 C12.87172775 53.13089005 12.87172775 53.13089005 6.875 51.8125 C6.11058594 51.64814453 5.34617187 51.48378906 4.55859375 51.31445312 C-0.88360714 50.11639286 -0.88360714 50.11639286 -2 49 C-2.28058489 45.04885455 -2.23181436 41.08492277 -2.25 37.125 C-2.270625 36.00996094 -2.29125 34.89492187 -2.3125 33.74609375 C-2.31765625 32.67746094 -2.3228125 31.60882813 -2.328125 30.5078125 C-2.3374707 29.52441895 -2.34681641 28.54102539 -2.35644531 27.52783203 C-1.94054773 24.57837753 -1.19326509 23.89819583 1 22 C1.47468649 19.62891122 1.47468649 19.62891122 1.375 17.0625 C1.38273437 16.20785156 1.39046875 15.35320312 1.3984375 14.47265625 C0.92840484 11.55568888 -0.18448227 10.28006273 -2 8 C-2.3125 4.875 -2.3125 4.875 -2 2 C-1.34 1.34 -0.68 0.68 0 0 Z " fill="#C1232F" transform="translate(21,66)"/>
<path d="M0 0 C0.09900135 4.76881876 0.17152928 9.5370373 0.21972656 14.30664062 C0.23982144 15.92849143 0.26710254 17.55026997 0.30175781 19.171875 C0.3503727 21.5053898 0.37298889 23.83794557 0.390625 26.171875 C0.41127014 26.89493835 0.43191528 27.61800171 0.45318604 28.36297607 C0.45471434 31.80482426 0.26665383 33.65028544 -1.84814453 36.42382812 C-10.89863721 43.05305217 -27.74165236 42.21607533 -38.42724609 40.64257812 C-40.80105788 40.21297213 -43.14838713 39.72503307 -45.5 39.1875 C-46.22421143 39.02241943 -46.94842285 38.85733887 -47.69458008 38.68725586 C-51.50181593 37.71053524 -52.74670933 37.37993601 -55 34 C-55.22705078 31.73168945 -55.22705078 31.73168945 -55.1953125 29.11328125 C-55.18886719 28.17548828 -55.18242188 27.23769531 -55.17578125 26.27148438 C-55.15902344 25.29501953 -55.14226563 24.31855469 -55.125 23.3125 C-55.11597656 22.32443359 -55.10695312 21.33636719 -55.09765625 20.31835938 C-55.0740843 17.87866235 -55.04118022 15.43945303 -55 13 C-54.05898438 12.58105469 -53.11796875 12.16210938 -52.1484375 11.73046875 C-49.0847062 10.04655688 -48.11035727 9.34034366 -46.625 6.3125 C-46.08875 5.219375 -45.5525 4.12625 -45 3 C-44.360625 3.268125 -43.72125 3.53625 -43.0625 3.8125 C-42.051875 4.204375 -41.04125 4.59625 -40 5 C-39.37996094 5.26425781 -38.75992188 5.52851562 -38.12109375 5.80078125 C-28.46472021 9.55307373 -18.84173815 9.03848134 -9.31640625 5.15625 C-6.12716222 3.56431706 -3.49259571 0 0 0 Z " fill="#EDCCA2" transform="translate(91,29)"/>
<path d="M0 0 C0 2.97 0 5.94 0 9 C0.99 9 1.98 9 3 9 C3.2475 8.2575 3.495 7.515 3.75 6.75 C5.13577971 3.70128464 6.35068125 2.04376018 9 0 C11.75 -0.25 11.75 -0.25 14 0 C13.46274105 3.37705625 12.88935377 6.696686 12 10 C14.49524117 8.54444265 16.86025584 7.1109733 19.125 5.3125 C21 4 21 4 24 4 C23.69489295 10.10214102 20.82358005 13.53771809 17 18 C16.45988281 18.63550781 15.91976562 19.27101563 15.36328125 19.92578125 C9.40129787 26.41586572 2.17595759 29.5134094 -6.578125 30.203125 C-14.73965007 30.34630965 -21.54599542 29.25881855 -28 24 C-30.14733927 23.29485154 -30.14733927 23.29485154 -32 23 C-32.0825 23.886875 -32.165 24.77375 -32.25 25.6875 C-33.12910444 29.57021127 -34.0742069 31.30519057 -37 34 C-40.75 34.8125 -40.75 34.8125 -44 35 C-45.65706512 29.25550758 -46.37080225 23.79750786 -46.75390625 17.83203125 C-46.98649284 15.15543956 -47.42024159 12.62089132 -48 10 C-44.10763555 7.54166456 -41.43661103 6.86944511 -36.9375 7.125 C-34.35603007 7.28440181 -34.35603007 7.28440181 -32 7 C-31.195625 6.175 -30.39125 5.35 -29.5625 4.5 C-26.50394184 1.51604082 -25.57920146 1.61167587 -21.4375 1.5625 C-17.73364177 1.64983092 -15.20703324 2.12105582 -12 4 C-13.41154766 7.41124018 -15.06221223 8.8456223 -18 11 C-18 11.66 -18 12.32 -18 13 C-12.2976653 12.36640726 -9.27192114 7.33275277 -5.875 3.1875 C-5.15957031 2.28064453 -5.15957031 2.28064453 -4.4296875 1.35546875 C-3 0 -3 0 0 0 Z " fill="#F0D943" transform="translate(75,4)"/>
<path d="M0 0 C0.99 0.33 1.98 0.66 3 1 C2.67 4.96 2.34 8.92 2 13 C3.32 13.33 4.64 13.66 6 14 C6 15.98 6 17.96 6 20 C4.68 20.33 3.36 20.66 2 21 C2.66 25.95 3.32 30.9 4 36 C-5.1796875 34.73046875 -5.1796875 34.73046875 -8 34 C-10.16926659 30.74610012 -10.24080049 29.86604043 -10.1953125 26.11328125 C-10.18886719 25.17548828 -10.18242188 24.23769531 -10.17578125 23.27148438 C-10.15902344 22.29501953 -10.14226563 21.31855469 -10.125 20.3125 C-10.11597656 19.32443359 -10.10695312 18.33636719 -10.09765625 17.31835938 C-10.0740843 14.87866235 -10.04118022 12.43945303 -10 10 C-9.05898438 9.58105469 -8.11796875 9.16210938 -7.1484375 8.73046875 C-4.0847062 7.04655688 -3.11035727 6.34034366 -1.625 3.3125 C-1.08875 2.219375 -0.5525 1.12625 0 0 Z " fill="#EDB684" transform="translate(46,32)"/>
<path d="M0 0 C-0.02320312 0.98742188 -0.04640625 1.97484375 -0.0703125 2.9921875 C-0.08835937 4.27351562 -0.10640625 5.55484375 -0.125 6.875 C-0.14820312 8.15117187 -0.17140625 9.42734375 -0.1953125 10.7421875 C-0.35641524 14.08593338 -0.35641524 14.08593338 2 16 C1.01 16 0.02 16 -1 16 C-1.0825 16.886875 -1.165 17.77375 -1.25 18.6875 C-2.12910444 22.57021127 -3.0742069 24.30519057 -6 27 C-9.75 27.8125 -9.75 27.8125 -13 28 C-14.65706512 22.25550758 -15.37080225 16.79750786 -15.75390625 10.83203125 C-15.98649284 8.15543956 -16.42024159 5.62089132 -17 3 C-11.42531458 -0.61601216 -6.39432346 -0.30720059 0 0 Z " fill="#E8C02D" transform="translate(44,11)"/>
<path d="M0 0 C1.98 0 3.96 0 6 0 C6 16.5 6 33 6 50 C4.02 50 2.04 50 0 50 C0 33.5 0 17 0 0 Z " fill="#DD636E" transform="translate(61,74)"/>
<path d="M0 0 C-0.33 1.32 -0.66 2.64 -1 4 C-3.89444095 4.6732656 -6.79030013 5.33880404 -9.6875 6 C-10.50412109 6.19078125 -11.32074219 6.3815625 -12.16210938 6.578125 C-16.17239326 7.48733916 -19.85717252 8.27000098 -24 8 C-23.67 6.68 -23.34 5.36 -23 4 C-20.10555905 3.3267344 -17.20969987 2.66119596 -14.3125 2 C-13.49587891 1.80921875 -12.67925781 1.6184375 -11.83789062 1.421875 C-7.82760674 0.51266084 -4.14282748 -0.27000098 0 0 Z " fill="#130607" transform="translate(104,85)"/>
<path d="M0 0 C-0.33 1.32 -0.66 2.64 -1 4 C-3.51840815 4.677219 -6.03908724 5.34191174 -8.5625 6 C-9.26697266 6.19078125 -9.97144531 6.3815625 -10.69726562 6.578125 C-15.27060209 7.75834086 -19.27776365 8.19856973 -24 8 C-24 7.01 -24 6.02 -24 5 C-20.940229 4.15642037 -17.8767954 3.3269798 -14.8125 2.5 C-13.94818359 2.26152344 -13.08386719 2.02304688 -12.19335938 1.77734375 C-11.35224609 1.55175781 -10.51113281 1.32617188 -9.64453125 1.09375 C-8.87471924 0.88427734 -8.10490723 0.67480469 -7.31176758 0.45898438 C-4.82176477 -0.03538729 -2.53218501 -0.07833519 0 0 Z " fill="#130607" transform="translate(104,78)"/>
<path d="M0 0 C2.4375 0.1875 2.4375 0.1875 3.4375 1.1875 C3.50955511 2.87358966 3.52136068 4.56250659 3.5 6.25 C3.49097656 7.16910156 3.48195313 8.08820313 3.47265625 9.03515625 C3.46105469 9.74542969 3.44945313 10.45570312 3.4375 11.1875 C0.5625 11.8125 0.5625 11.8125 -2.5625 12.1875 C-4.5625 10.1875 -4.5625 10.1875 -4.828125 8.3125 C-4.82296875 7.61125 -4.8178125 6.91 -4.8125 6.1875 C-4.81765625 5.48625 -4.8228125 4.785 -4.828125 4.0625 C-4.37513156 0.86489922 -3.08873312 0.22600486 0 0 Z " fill="#E6C196" transform="translate(113.5625,76.8125)"/>
<path d="M0 0 C2.5625 0.1875 2.5625 0.1875 4.5625 2.1875 C4.828125 4.0625 4.828125 4.0625 4.8125 6.1875 C4.81765625 6.88875 4.8228125 7.59 4.828125 8.3125 C4.5625 10.1875 4.5625 10.1875 2.5625 12.1875 C-0.5625 11.8125 -0.5625 11.8125 -3.4375 11.1875 C-3.46438151 9.54175434 -3.48384123 7.89588587 -3.5 6.25 C-3.51160156 5.33347656 -3.52320313 4.41695313 -3.53515625 3.47265625 C-3.39916631 0.29049156 -3.17893404 0.24453339 0 0 Z " fill="#E6C197" transform="translate(14.4375,76.8125)"/>
<path d="M0 0 C0.33 0 0.66 0 1 0 C1 2.97 1 5.94 1 9 C0.67 8.01 0.34 7.02 0 6 C-1.19238281 6.28875 -2.38476562 6.5775 -3.61328125 6.875 C-5.17964512 7.25017698 -6.74605372 7.62516726 -8.3125 8 C-9.09818359 8.19078125 -9.88386719 8.3815625 -10.69335938 8.578125 C-11.45068359 8.75859375 -12.20800781 8.9390625 -12.98828125 9.125 C-13.68477783 9.29257813 -14.38127441 9.46015625 -15.09887695 9.6328125 C-17 10 -17 10 -20 10 C-19.67 9.01 -19.34 8.02 -19 7 C-17.25 6.23217773 -17.25 6.23217773 -15 5.68359375 C-14.195625 5.47669922 -13.39125 5.26980469 -12.5625 5.05664062 C-11.716875 4.85232422 -10.87125 4.64800781 -10 4.4375 C-8.33154115 4.02674374 -6.66475325 3.60911962 -5 3.18359375 C-3.88625 2.91373657 -3.88625 2.91373657 -2.75 2.63842773 C-0.78873872 2.1499677 -0.78873872 2.1499677 0 0 Z " fill="#C8444D" transform="translate(104,79)"/>
<path d="M0 0 C0.99 0 1.98 0 3 0 C3.45375 0.515625 3.9075 1.03125 4.375 1.5625 C4.91125 2.036875 5.4475 2.51125 6 3 C8.6272914 2.92466753 8.6272914 2.92466753 11 2 C11.33 1.34 11.66 0.68 12 0 C12.99 0 13.98 0 15 0 C14.25 4.75 14.25 4.75 12 7 C9.94140625 7.30078125 9.94140625 7.30078125 7.5625 7.3125 C6.38880859 7.33763672 6.38880859 7.33763672 5.19140625 7.36328125 C3 7 3 7 1.21484375 5.73046875 C0 4 0 4 0 0 Z " fill="#0E0C09" transform="translate(56,58)"/>
<path d="M0 0 C0.33 0.66 0.66 1.32 1 2 C-0.55394076 6.49022147 -2.66018477 10.76433761 -7 13 C-9.75 13.6875 -9.75 13.6875 -12 14 C-8 9.33333333 -4 4.66666667 0 0 Z " fill="#DDB72B" transform="translate(72,4)"/>
<path d="M0 0 C2.0625 0.4375 2.0625 0.4375 4 1 C3.67 3.31 3.34 5.62 3 8 C1.68 7.67 0.36 7.34 -1 7 C-1.04254356 5.00045254 -1.04080783 2.99958364 -1 1 C-0.67 0.67 -0.34 0.34 0 0 Z " fill="#13110D" transform="translate(76,45)"/>
<path d="M0 0 C2.0625 0.4375 2.0625 0.4375 4 1 C4 2.98 4 4.96 4 7 C2.68 7 1.36 7 0 7 C-1 6 -1 6 -1.125 3.5 C-1 1 -1 1 0 0 Z " fill="#110E0B" transform="translate(48,45)"/>
<path d="M0 0 C1.485 0.99 1.485 0.99 3 2 C3.1875 4.625 3.1875 4.625 3 7 C2.01 7.33 1.02 7.66 0 8 C0 5.36 0 2.72 0 0 Z " fill="#C1946B" transform="translate(95,43)"/>
<path d="M0 0 C0.33 0 0.66 0 1 0 C1 2.64 1 5.28 1 8 C0.34 8 -0.32 8 -1 8 C-1.625 5.125 -1.625 5.125 -2 2 C-1.34 1.34 -0.68 0.68 0 0 Z " fill="#C7996E" transform="translate(31,43)"/>
<path d="M0 0 C0.66 0.33 1.32 0.66 2 1 C0.02 3.31 -1.96 5.62 -4 8 C-4.66 7.67 -5.32 7.34 -6 7 C-4.02 4.69 -2.04 2.38 0 0 Z " fill="#D5B52F" transform="translate(84,4)"/>
</svg>
